<?xml version="1.0" encoding="utf-8"?>
<!-- Generator: Adobe Illustrator 25.1.0, SVG Export Plug-In . SVG Version: 6.00 Build 0)  -->
<svg version="1.1" id="Layer_1" xmlns="http://www.w3.org/2000/svg" xmlns:xlink="http://www.w3.org/1999/xlink" x="0px" y="0px"
	 viewBox="0 0 500 500" style="enable-background:new 0 0 500 500;" xml:space="preserve">
<style type="text/css">
	.st0{fill:#0A1F2C;}
</style>
<path class="st0" d="M107.97,0.56c95.02,0,190.03,0,285.05,0c4.14,0.7,8.28,1.42,12.42,2.1c53.56,8.77,94.63,56.98,94.64,111.11
	c0.01,89.97,0.04,179.93-0.08,269.9c-0.01,7.27-0.64,14.62-1.8,21.8c-8.58,53.5-56.94,94.57-111.1,94.58
	c-90.45,0.01-180.91,0.02-271.36-0.04c-5.51,0-11.12-0.11-16.52-1.07c-46.92-8.33-78.35-34.98-93.34-80.32
	c-2.72-8.23-3.58-17.07-5.3-25.63c0-95.02,0-190.03,0-285.05c0.45-2.86,0.84-5.73,1.34-8.57c8.4-47.01,35.03-78.5,80.45-93.52
	C90.6,3.14,99.43,2.28,107.97,0.56z M375.3,315.44c0.1,0,0.2,0,0.3,0c0-20.99,0.02-41.97-0.01-62.96
	c-0.01-10.36-2.85-15.31-12.96-17.87c-9.03-2.29-18.65-4.21-27.8-3.53c-14.31,1.06-28.49,4.28-42.66,6.91
	c-21.75,4.03-43.12,4.06-63.12-6.69c-9.85-5.3-19.18-11.62-28.43-17.94c-19.71-13.46-41.33-12.74-63.31-8.77
	c-6.72,1.21-10.45,6.22-11.09,13.16c-0.26,2.75-0.49,5.51-0.5,8.26c-0.04,18.22,0.01,36.44-0.03,54.66
	c-0.07,32.21-0.03,64.42-0.36,96.62c-0.15,14.08,7.68,27.69,26.7,26.88c14.27-0.6,28.62-0.73,42.87,0.05
	c15.02,0.82,25.64-11.89,25.64-25.8c0.01-26.34,0.32-52.69,0.53-79.03c0.08-10.25,0.37-20.49,0.27-30.73
	c-0.04-3.65,1.38-5.74,4.79-6c7.25-0.56,14.61-1.63,21.78-0.98c15.93,1.45,28.77,13.53,30.6,29.4c1.51,13.03,1.6,26.25,1.86,39.4
	c0.33,16.1,0.13,32.21,0.26,48.31c0.11,14.25,8.54,24.56,22.33,25.34c16.05,0.91,32.22,1.18,48.26,0.35
	c16.18-0.84,24.03-10.32,24.06-26.57C375.33,357.07,375.3,336.25,375.3,315.44z M326.7,215.59c26.36-0.01,47.74-21.46,47.61-47.76
	c-0.13-26.13-21.45-47.43-47.5-47.45c-26.44-0.02-47.82,21.25-47.84,47.58C278.95,194.32,300.27,215.59,326.7,215.59z
	 M220.55,144.18c1.41-20.37-15.1-47.35-47.28-47.93c-26.07-0.48-47.89,21.67-47.87,47.73c0.02,25.97,21.22,47.28,47.43,47.69
	C199.09,192.08,220.55,170.73,220.55,144.18z"/>
</svg>
