<?xml version="1.0" encoding="utf-8"?>
<!-- Generator: Adobe Illustrator 25.1.0, SVG Export Plug-In . SVG Version: 6.00 Build 0)  -->
<svg version="1.1" id="Layer_1" xmlns="http://www.w3.org/2000/svg" xmlns:xlink="http://www.w3.org/1999/xlink" x="0px" y="0px"
	 viewBox="0 0 500 500" style="enable-background:new 0 0 500 500;" xml:space="preserve">
<style type="text/css">
	.st0{fill-rule:evenodd;clip-rule:evenodd;fill:#0A1F2C;}
</style>
<g id="Page-1_6_">
	<g id="Dribbble-Light-Preview_6_" transform="translate(-340.000000, -7439.000000)">
		<g id="icons_6_" transform="translate(56.000000, 160.000000)">
			<path id="instagram-_x5B__x23_167_x5D__6_" class="st0" d="M431.97,7284.12c-40.29,1.82-75.21,11.67-103.41,39.75
				c-28.3,28.23-38.03,63.29-39.85,103.16c-1.13,24.88-7.76,212.9,11.45,262.2c12.95,33.26,38.47,58.84,72.04,71.83
				c15.66,6.09,33.54,10.22,59.77,11.42c219.31,9.92,300.61,4.52,334.89-83.26c6.08-15.63,10.27-33.49,11.43-59.65
				c10.02-219.87-1.63-267.53-39.85-305.71C708.12,7293.63,672.46,7273.05,431.97,7284.12 M433.99,7728.27
				c-24.01-1.08-37.04-5.09-45.73-8.45c-21.87-8.5-38.3-24.86-46.74-46.6c-14.63-37.46-9.78-215.41-8.47-244.2
				c1.28-28.21,6.99-53.97,26.89-73.88c24.63-24.57,56.45-36.61,273.1-26.83c28.27,1.28,54.11,6.99,74.06,26.83
				c24.63,24.57,36.84,56.63,26.89,272.45c-1.08,23.95-5.1,36.94-8.47,45.62C703.22,7730.34,651.94,7738.28,433.99,7728.27
				 M635.42,7397.16c0,16.27,13.23,29.49,29.55,29.49c16.33,0,29.58-13.22,29.58-29.49c0-16.25-13.25-29.48-29.58-29.48
				C648.64,7367.68,635.42,7380.9,635.42,7397.16 M407.04,7528.29c0,69.67,56.62,126.16,126.46,126.16s126.46-56.49,126.46-126.16
				s-56.62-126.12-126.46-126.12S407.04,7458.62,407.04,7528.29 M451.42,7528.29c0-45.2,36.74-81.88,82.08-81.88
				c45.34,0,82.08,36.68,82.08,81.88c0,45.24-36.75,81.91-82.08,81.91C488.17,7610.21,451.42,7573.53,451.42,7528.29"/>
		</g>
	</g>
</g>
</svg>
