<?xml version="1.0" encoding="utf-8"?>
<!-- Generator: Adobe Illustrator 25.1.0, SVG Export Plug-In . SVG Version: 6.00 Build 0)  -->
<svg version="1.1" id="Layer_1" xmlns="http://www.w3.org/2000/svg" xmlns:xlink="http://www.w3.org/1999/xlink" x="0px" y="0px"
	 viewBox="0 0 99.68 28.26" style="enable-background:new 0 0 99.68 28.26;" xml:space="preserve">
<style type="text/css">
	.st0{fill:#0A1F2C;}
	.st1{font-family:'Campton-LightDEMO';}
	.st2{font-size:14px;}
	.st3{enable-background:new    ;}
	.st4{fill:none;stroke:#0A1F2C;stroke-width:0.25;stroke-miterlimit:10;}
	.st5{fill:#0A1F2C;stroke:#0A1F2C;stroke-width:0.05;stroke-miterlimit:10;}
</style>
<text transform="matrix(1 0 0 1 1.4676 12.0516)" class="st0 st1 st2">Adam Kubasti</text>
<g class="st3">
	<path class="st4" d="M4.2,9.28l-1.23,2.77H1.9l4.33-9.59h0.94l4.33,9.59h-1.06L9.2,9.28H4.2z M6.69,3.65L4.61,8.37h4.19L6.69,3.65z
		"/>
	<path class="st4" d="M18.92,12.05h-0.95v-0.71c-0.59,0.56-1.37,0.88-2.34,0.88c-1.85,0-3.35-1.51-3.35-3.4c0-1.89,1.5-3.4,3.35-3.4
		c0.97,0,1.75,0.32,2.34,0.88V2.11h0.95V12.05z M17.96,10.2V7.43c-0.55-0.8-1.33-1.19-2.21-1.19c-1.43,0-2.51,1.18-2.51,2.58
		c0,1.39,1.08,2.56,2.51,2.56C16.63,11.38,17.42,10.99,17.96,10.2z"/>
	<path class="st4" d="M27.55,12.05H26.6v-0.71c-0.59,0.56-1.37,0.9-2.34,0.9c-1.85,0-3.35-1.51-3.35-3.42c0-1.89,1.5-3.4,3.35-3.4
		c0.97,0,1.75,0.34,2.34,0.9V5.58h0.95V12.05z M26.6,10.22V7.43c-0.55-0.79-1.33-1.18-2.21-1.18c-1.43,0-2.51,1.18-2.51,2.56
		c0,1.4,1.08,2.58,2.51,2.58C25.27,11.39,26.05,11,26.6,10.22z"/>
	<path class="st4" d="M40.49,8.33v3.73h-0.95V8.37c0-1.34-0.7-2.12-1.86-2.12c-0.8,0-1.56,0.38-2.07,1.25
		c0.06,0.25,0.08,0.53,0.08,0.83v3.73h-0.95V8.37c0-1.34-0.71-2.12-1.86-2.12c-0.77,0-1.48,0.39-2,1.18v4.62h-0.95V5.58h0.95v0.74
		c0.53-0.6,1.19-0.95,2.17-0.95c0.95,0,1.75,0.43,2.21,1.21c0.63-0.77,1.44-1.21,2.59-1.21C39.4,5.37,40.49,6.5,40.49,8.33z"/>
	<path class="st4" d="M47.53,9.56v2.49h-0.99V2.53h0.99v5.66l5.45-5.66h1.22l-4.1,4.34l4.61,5.18h-1.26L49.39,7.6L47.53,9.56z"/>
	<path class="st4" d="M61.75,12.05H60.8v-0.76c-0.6,0.6-1.43,0.97-2.38,0.97c-1.62,0-2.76-1.12-2.76-2.94V5.58h0.95v3.68
		c0,1.36,0.8,2.13,1.97,2.13c0.81,0,1.65-0.43,2.21-1.21V5.58h0.95V12.05z"/>
	<path class="st4" d="M70.76,8.82c0,1.89-1.49,3.4-3.35,3.4c-0.95,0-1.75-0.34-2.34-0.9v0.73h-0.95V2.11h0.95v4.2
		c0.59-0.56,1.39-0.9,2.34-0.9C69.27,5.41,70.76,6.92,70.76,8.82z M69.8,8.82c0-1.4-1.09-2.58-2.51-2.58c-0.9,0-1.68,0.41-2.23,1.22
		v2.72c0.55,0.81,1.33,1.21,2.23,1.21C68.71,11.38,69.8,10.2,69.8,8.82z"/>
	<path class="st4" d="M78.93,12.05h-0.95v-0.71c-0.59,0.56-1.37,0.9-2.34,0.9c-1.85,0-3.35-1.51-3.35-3.42c0-1.89,1.5-3.4,3.35-3.4
		c0.97,0,1.75,0.34,2.34,0.9V5.58h0.95V12.05z M77.98,10.22V7.43c-0.55-0.79-1.33-1.18-2.21-1.18c-1.43,0-2.51,1.18-2.51,2.56
		c0,1.4,1.08,2.58,2.51,2.58C76.65,11.39,77.43,11,77.98,10.22z"/>
	<path class="st4" d="M81.76,10.05c0.2,0.88,0.88,1.42,2.14,1.42c1.05,0,1.76-0.45,1.76-1.15c0-0.57-0.46-0.92-1.12-1.02l-1.47-0.25
		C82,8.87,81.16,8.4,81.16,7.3c0-1.16,1.04-1.92,2.59-1.92c1.32,0,2.69,0.57,2.8,2.06h-0.88c-0.13-0.84-0.83-1.29-1.92-1.29
		c-1.02,0-1.65,0.45-1.65,1.08c0,0.49,0.35,0.87,1.28,1.01l1.29,0.22c0.94,0.15,1.93,0.56,1.93,1.79c0,1.26-1.13,2-2.72,2
		c-1.68,0-2.8-0.74-3.01-2.21H81.76z"/>
	<path class="st4" d="M92.82,12.04c-0.59,0.17-0.97,0.22-1.4,0.22c-1.48,0-2.24-0.85-2.24-2.54V6.41h-1.72V5.58h1.72v-2.4h0.95v2.4
		h2.45v0.83h-2.45v3.32c0,1.18,0.46,1.65,1.44,1.65c0.34,0,0.74-0.07,1.09-0.17L92.82,12.04z"/>
	<path class="st4" d="M94.64,3.13c0-0.36,0.29-0.64,0.66-0.64c0.38,0,0.67,0.28,0.67,0.64c0,0.38-0.29,0.64-0.67,0.64
		C94.93,3.77,94.64,3.51,94.64,3.13z M95.77,12.05h-0.95V5.58h0.95V12.05z"/>
</g>
<g class="st3">
	<path class="st5" d="M5.27,23.85c0.41,0,0.78-0.04,1.13-0.13c0.35-0.09,0.64-0.2,0.88-0.35l0.38-2.17H5.99l0.11-0.61h2.37
		l-0.56,3.19c-0.43,0.25-0.86,0.42-1.3,0.53c-0.44,0.11-0.9,0.16-1.38,0.16c-0.47,0-0.9-0.07-1.29-0.22c-0.39-0.15-0.72-0.35-1-0.62
		c-0.28-0.27-0.5-0.59-0.65-0.96c-0.15-0.37-0.23-0.79-0.23-1.24c0-0.61,0.11-1.19,0.33-1.72c0.22-0.53,0.52-1,0.9-1.39
		s0.83-0.71,1.35-0.94c0.51-0.23,1.06-0.34,1.65-0.34c0.26,0,0.51,0.03,0.75,0.08c0.24,0.05,0.47,0.13,0.68,0.22
		c0.21,0.1,0.39,0.21,0.55,0.36c0.16,0.14,0.29,0.3,0.4,0.47l-0.65,0.43c-0.05-0.11-0.13-0.23-0.23-0.34
		c-0.1-0.11-0.23-0.21-0.38-0.3c-0.15-0.09-0.31-0.16-0.51-0.21c-0.19-0.05-0.4-0.08-0.63-0.08c-0.51,0-0.97,0.1-1.4,0.31
		s-0.79,0.49-1.09,0.83c-0.3,0.34-0.54,0.74-0.71,1.19c-0.17,0.45-0.26,0.91-0.26,1.38c0,0.35,0.05,0.67,0.16,0.97
		c0.11,0.3,0.27,0.57,0.48,0.79s0.47,0.4,0.77,0.53C4.52,23.78,4.87,23.85,5.27,23.85z"/>
	<path class="st5" d="M10.25,20.15c0.03-0.2,0.05-0.38,0.06-0.54h0.64c-0.01,0.13-0.03,0.27-0.05,0.42
		c-0.02,0.15-0.04,0.28-0.06,0.38h0.02c0.17-0.27,0.39-0.5,0.66-0.67s0.57-0.25,0.9-0.25c0.09,0,0.16,0,0.23,0.01
		c0.07,0.01,0.14,0.02,0.21,0.04l-0.16,0.64c-0.03-0.01-0.1-0.03-0.19-0.04c-0.09-0.01-0.18-0.02-0.27-0.02
		c-0.18,0-0.36,0.03-0.53,0.1c-0.17,0.07-0.33,0.17-0.47,0.32c-0.14,0.14-0.27,0.33-0.38,0.55c-0.11,0.22-0.19,0.49-0.24,0.8
		l-0.42,2.4H9.53l0.64-3.65C10.19,20.51,10.22,20.35,10.25,20.15z"/>
	<path class="st5" d="M16.36,21.42c0.02-0.11,0.03-0.2,0.04-0.26c0.01-0.06,0.01-0.12,0.01-0.17c0-0.34-0.1-0.58-0.29-0.72
		c-0.19-0.14-0.46-0.21-0.81-0.21c-0.28,0-0.55,0.06-0.81,0.17c-0.26,0.11-0.48,0.24-0.65,0.4l-0.3-0.45
		c0.23-0.2,0.51-0.36,0.84-0.49c0.33-0.12,0.66-0.18,0.99-0.18c0.22,0,0.43,0.02,0.63,0.08c0.2,0.05,0.38,0.13,0.53,0.24
		c0.15,0.11,0.27,0.25,0.36,0.42c0.09,0.17,0.13,0.38,0.13,0.62c0,0.06,0,0.14-0.01,0.25c-0.01,0.1-0.02,0.19-0.03,0.25l-0.34,1.9
		c-0.03,0.18-0.06,0.37-0.08,0.56s-0.03,0.36-0.03,0.49h-0.6c0-0.11,0-0.24,0.02-0.37c0.01-0.13,0.02-0.26,0.04-0.39h-0.02
		c-0.13,0.15-0.27,0.29-0.4,0.39c-0.13,0.11-0.27,0.2-0.42,0.27c-0.14,0.07-0.3,0.11-0.46,0.14c-0.16,0.03-0.34,0.04-0.54,0.04
		c-0.16,0-0.32-0.02-0.49-0.06c-0.17-0.04-0.32-0.11-0.46-0.21s-0.25-0.22-0.34-0.38c-0.09-0.15-0.14-0.34-0.14-0.57
		c0-0.37,0.11-0.67,0.32-0.91c0.21-0.23,0.49-0.41,0.83-0.53c0.34-0.12,0.73-0.21,1.16-0.25C15.49,21.44,15.92,21.42,16.36,21.42z
		 M16.11,21.93c-0.3,0-0.61,0.02-0.92,0.04c-0.31,0.03-0.6,0.09-0.85,0.17c-0.26,0.08-0.47,0.2-0.63,0.35
		c-0.16,0.15-0.24,0.35-0.24,0.59c0,0.15,0.03,0.27,0.08,0.37c0.05,0.1,0.12,0.17,0.22,0.23c0.09,0.06,0.19,0.1,0.31,0.12
		c0.12,0.02,0.23,0.04,0.35,0.04c0.24,0,0.46-0.04,0.66-0.12c0.2-0.08,0.38-0.19,0.53-0.33c0.15-0.14,0.28-0.3,0.38-0.48
		s0.17-0.38,0.21-0.58l0.07-0.39H16.11z"/>
	<path class="st5" d="M19.64,20.37c0.07-0.12,0.17-0.23,0.29-0.34s0.25-0.2,0.4-0.28c0.15-0.08,0.31-0.14,0.49-0.19
		c0.17-0.05,0.35-0.07,0.54-0.07c0.32,0,0.61,0.05,0.86,0.14c0.26,0.1,0.48,0.24,0.67,0.42c0.19,0.18,0.33,0.39,0.43,0.64
		c0.1,0.25,0.15,0.52,0.15,0.82c0,0.4-0.07,0.78-0.21,1.13c-0.14,0.35-0.33,0.66-0.58,0.92c-0.24,0.26-0.53,0.47-0.87,0.62
		c-0.34,0.15-0.7,0.23-1.09,0.23c-0.34,0-0.66-0.08-0.96-0.23c-0.3-0.15-0.52-0.38-0.67-0.68h-0.02l-0.57,3.19h-0.67l1.26-7.08h0.67
		l-0.14,0.76H19.64z M22.77,21.55c0-0.21-0.03-0.4-0.09-0.59c-0.06-0.18-0.16-0.34-0.29-0.48c-0.13-0.14-0.28-0.24-0.46-0.32
		c-0.18-0.08-0.39-0.12-0.63-0.12c-0.29,0-0.57,0.06-0.82,0.18s-0.47,0.29-0.66,0.5c-0.19,0.21-0.33,0.46-0.44,0.73
		c-0.11,0.28-0.16,0.57-0.16,0.88c0,0.22,0.03,0.42,0.1,0.61c0.07,0.18,0.17,0.34,0.3,0.48s0.29,0.24,0.48,0.32
		c0.18,0.07,0.39,0.11,0.62,0.11c0.31,0,0.58-0.06,0.83-0.18c0.25-0.12,0.47-0.28,0.65-0.49c0.18-0.21,0.32-0.45,0.42-0.73
		S22.77,21.87,22.77,21.55z"/>
	<path class="st5" d="M27.47,19.49c0.5,0,0.89,0.13,1.18,0.38s0.43,0.61,0.43,1.04c0,0.08-0.01,0.16-0.02,0.24s-0.02,0.17-0.04,0.26
		l-0.52,2.87h-0.67l0.46-2.59c0.04-0.21,0.06-0.4,0.06-0.59c0-0.33-0.08-0.58-0.23-0.78c-0.16-0.19-0.43-0.29-0.83-0.29
		c-0.18,0-0.36,0.04-0.54,0.11c-0.18,0.07-0.35,0.19-0.5,0.34s-0.29,0.34-0.4,0.58c-0.12,0.23-0.2,0.5-0.25,0.81l-0.42,2.4h-0.67
		l1.33-7.56h0.67l-0.64,3.65h0.02c0.17-0.27,0.4-0.49,0.68-0.65C26.85,19.57,27.15,19.49,27.47,19.49z"/>
	<path class="st5" d="M30.96,24.29h-0.67l0.83-4.68h0.67L30.96,24.29z M32.19,17.8c0,0.13-0.04,0.25-0.14,0.34
		c-0.09,0.09-0.2,0.14-0.33,0.14c-0.13,0-0.23-0.04-0.32-0.12c-0.09-0.08-0.14-0.19-0.14-0.33s0.05-0.26,0.15-0.35
		c0.1-0.09,0.21-0.14,0.33-0.14c0.13,0,0.23,0.04,0.32,0.12C32.14,17.55,32.19,17.66,32.19,17.8z"/>
	<path class="st5" d="M36.69,20.67c-0.08-0.18-0.22-0.33-0.42-0.45c-0.2-0.12-0.42-0.17-0.67-0.17c-0.3,0-0.58,0.06-0.83,0.18
		s-0.47,0.29-0.66,0.5c-0.18,0.21-0.33,0.46-0.43,0.73c-0.1,0.28-0.16,0.57-0.16,0.89c0,0.21,0.03,0.41,0.1,0.6
		c0.07,0.18,0.17,0.34,0.29,0.48s0.29,0.24,0.48,0.32c0.19,0.08,0.4,0.12,0.64,0.12c0.3,0,0.56-0.06,0.79-0.17
		c0.23-0.11,0.42-0.26,0.59-0.44l0.43,0.37c-0.24,0.25-0.51,0.44-0.81,0.58c-0.3,0.14-0.65,0.22-1.05,0.22
		c-0.33,0-0.63-0.05-0.9-0.15c-0.27-0.1-0.5-0.23-0.69-0.41s-0.34-0.39-0.44-0.64c-0.1-0.25-0.15-0.52-0.15-0.82
		c0-0.4,0.07-0.78,0.2-1.13c0.14-0.35,0.33-0.66,0.57-0.93c0.25-0.26,0.54-0.47,0.89-0.62s0.73-0.23,1.15-0.23
		c0.35,0,0.67,0.06,0.97,0.19c0.3,0.13,0.53,0.33,0.69,0.6L36.69,20.67z"/>
	<path class="st5" d="M41.57,17.21h2.14c0.4,0,0.8,0.05,1.19,0.17c0.39,0.11,0.75,0.28,1.06,0.52c0.31,0.24,0.57,0.54,0.76,0.92
		c0.19,0.38,0.29,0.83,0.29,1.35c0,0.62-0.11,1.18-0.32,1.69c-0.22,0.51-0.52,0.94-0.91,1.3s-0.84,0.64-1.37,0.83
		c-0.53,0.2-1.1,0.29-1.72,0.29h-2.37L41.57,17.21z M41.14,23.66h1.6c0.57,0,1.08-0.1,1.52-0.29s0.8-0.45,1.1-0.76
		c0.3-0.32,0.52-0.68,0.67-1.09c0.15-0.41,0.23-0.83,0.23-1.26c0-0.33-0.05-0.64-0.16-0.93c-0.11-0.29-0.27-0.55-0.49-0.77
		c-0.22-0.22-0.5-0.39-0.84-0.52c-0.34-0.13-0.74-0.19-1.21-0.19h-1.38L41.14,23.66z"/>
	<path class="st5" d="M48.53,22.13c-0.01,0.04-0.01,0.08-0.02,0.12c0,0.04,0,0.07,0,0.11c0,0.22,0.04,0.42,0.11,0.6
		s0.18,0.34,0.32,0.47s0.3,0.24,0.48,0.31c0.18,0.07,0.38,0.11,0.59,0.11c0.37,0,0.69-0.08,0.96-0.24c0.27-0.16,0.49-0.36,0.66-0.58
		l0.42,0.4c-0.27,0.33-0.59,0.57-0.95,0.73c-0.36,0.16-0.74,0.25-1.15,0.25c-0.3,0-0.58-0.05-0.84-0.14
		c-0.26-0.09-0.48-0.23-0.67-0.4s-0.34-0.39-0.45-0.65c-0.11-0.26-0.17-0.55-0.17-0.88c0-0.38,0.07-0.74,0.21-1.09
		c0.14-0.35,0.33-0.65,0.58-0.91c0.24-0.26,0.53-0.47,0.86-0.62c0.33-0.16,0.69-0.23,1.06-0.23c0.64,0,1.12,0.17,1.46,0.51
		s0.5,0.78,0.5,1.32c0,0.08-0.01,0.2-0.02,0.36c-0.01,0.16-0.04,0.31-0.07,0.45H48.53z M51.8,21.63c0.01-0.05,0.01-0.11,0.02-0.17
		c0-0.06,0-0.12,0-0.17c0-0.36-0.11-0.66-0.33-0.88c-0.22-0.23-0.54-0.35-0.97-0.35c-0.25,0-0.47,0.04-0.68,0.12
		c-0.21,0.08-0.4,0.2-0.56,0.35c-0.16,0.15-0.3,0.31-0.42,0.5c-0.11,0.19-0.19,0.39-0.24,0.6H51.8z"/>
	<path class="st5" d="M56.69,20.64c-0.09-0.17-0.23-0.31-0.42-0.42c-0.19-0.11-0.41-0.17-0.67-0.17c-0.12,0-0.25,0.01-0.38,0.04
		c-0.13,0.03-0.25,0.07-0.36,0.13c-0.11,0.06-0.2,0.14-0.27,0.24c-0.07,0.1-0.1,0.21-0.1,0.35c0,0.13,0.02,0.23,0.06,0.31
		c0.04,0.08,0.11,0.15,0.19,0.21s0.18,0.11,0.29,0.15c0.11,0.04,0.24,0.08,0.39,0.12c0.46,0.13,0.81,0.3,1.05,0.51
		c0.24,0.2,0.36,0.49,0.36,0.86c0,0.25-0.06,0.47-0.17,0.66s-0.26,0.33-0.43,0.45c-0.17,0.12-0.37,0.2-0.58,0.25
		c-0.21,0.05-0.42,0.08-0.63,0.08c-0.39,0-0.76-0.07-1.11-0.22c-0.34-0.14-0.61-0.37-0.8-0.66l0.58-0.38
		c0.11,0.19,0.28,0.36,0.51,0.5s0.49,0.2,0.79,0.2c0.15,0,0.29-0.01,0.43-0.04c0.14-0.03,0.27-0.08,0.38-0.14
		c0.11-0.06,0.2-0.15,0.27-0.25c0.07-0.1,0.1-0.23,0.1-0.37c0-0.25-0.1-0.44-0.29-0.57c-0.2-0.13-0.48-0.25-0.84-0.38
		c-0.14-0.05-0.28-0.1-0.42-0.16c-0.14-0.06-0.27-0.14-0.38-0.24s-0.2-0.21-0.27-0.35s-0.11-0.3-0.11-0.5
		c0-0.24,0.06-0.45,0.17-0.62c0.11-0.17,0.25-0.32,0.42-0.43s0.36-0.19,0.58-0.25c0.21-0.05,0.43-0.08,0.64-0.08
		c0.36,0,0.68,0.07,0.96,0.21c0.28,0.14,0.49,0.33,0.61,0.56L56.69,20.64z"/>
	<path class="st5" d="M58.63,24.29h-0.67l0.83-4.68h0.67L58.63,24.29z M59.86,17.8c0,0.13-0.04,0.25-0.13,0.34
		c-0.09,0.09-0.2,0.14-0.33,0.14c-0.13,0-0.24-0.04-0.33-0.12s-0.13-0.19-0.13-0.33s0.05-0.26,0.14-0.35
		c0.1-0.09,0.21-0.14,0.33-0.14c0.13,0,0.23,0.04,0.32,0.12C59.81,17.55,59.86,17.66,59.86,17.8z"/>
	<path class="st5" d="M60.5,25.27c0.17,0.24,0.4,0.44,0.71,0.59c0.3,0.16,0.63,0.23,0.99,0.23c0.33,0,0.62-0.05,0.86-0.14
		s0.44-0.23,0.6-0.4c0.16-0.17,0.29-0.37,0.38-0.59c0.09-0.22,0.16-0.46,0.21-0.71l0.17-0.89H64.4c-0.21,0.3-0.47,0.53-0.78,0.69
		s-0.64,0.24-1,0.24c-0.32,0-0.61-0.05-0.86-0.16c-0.26-0.1-0.48-0.25-0.66-0.43s-0.32-0.4-0.42-0.65c-0.1-0.25-0.14-0.52-0.14-0.81
		c0-0.38,0.07-0.74,0.2-1.07c0.14-0.33,0.33-0.62,0.57-0.88s0.53-0.45,0.87-0.59c0.33-0.14,0.7-0.21,1.09-0.21
		c0.17,0,0.33,0.02,0.5,0.06s0.32,0.1,0.46,0.18c0.14,0.08,0.27,0.18,0.38,0.29c0.11,0.12,0.2,0.25,0.27,0.39h0.02l0.15-0.81h0.66
		l-0.82,4.64c-0.05,0.25-0.12,0.52-0.21,0.81c-0.09,0.29-0.24,0.55-0.43,0.79c-0.2,0.24-0.46,0.44-0.79,0.6
		c-0.33,0.16-0.75,0.24-1.27,0.24c-0.46,0-0.88-0.08-1.25-0.25c-0.37-0.17-0.67-0.4-0.9-0.69L60.5,25.27z M61.23,22.25
		c0,0.2,0.03,0.39,0.1,0.57c0.07,0.18,0.16,0.34,0.29,0.47c0.13,0.14,0.28,0.24,0.47,0.32c0.19,0.08,0.4,0.12,0.64,0.12
		c0.3,0,0.58-0.06,0.83-0.18c0.25-0.12,0.46-0.27,0.64-0.47c0.18-0.2,0.32-0.43,0.42-0.7c0.1-0.26,0.15-0.54,0.15-0.83
		c0-0.21-0.04-0.4-0.1-0.58c-0.07-0.18-0.17-0.34-0.3-0.47c-0.13-0.13-0.29-0.24-0.47-0.32s-0.4-0.12-0.63-0.12
		c-0.3,0-0.58,0.05-0.83,0.16s-0.46,0.25-0.64,0.45c-0.18,0.19-0.32,0.42-0.42,0.69C61.28,21.62,61.23,21.92,61.23,22.25z"/>
	<path class="st5" d="M68.16,19.61c-0.01,0.13-0.03,0.27-0.05,0.42c-0.02,0.15-0.04,0.28-0.06,0.38h0.02
		c0.18-0.29,0.41-0.51,0.7-0.67c0.28-0.16,0.59-0.25,0.91-0.25c0.51,0,0.9,0.13,1.19,0.38s0.43,0.61,0.43,1.04
		c0,0.08-0.01,0.16-0.02,0.24s-0.02,0.17-0.04,0.26l-0.52,2.87h-0.67l0.46-2.59c0.04-0.21,0.06-0.4,0.06-0.59
		c0-0.33-0.08-0.58-0.23-0.78c-0.15-0.19-0.42-0.29-0.81-0.29c-0.18,0-0.36,0.04-0.54,0.11c-0.18,0.07-0.35,0.19-0.5,0.34
		c-0.16,0.15-0.29,0.34-0.42,0.58c-0.12,0.23-0.21,0.5-0.26,0.81l-0.42,2.4h-0.67l0.64-3.65c0.03-0.13,0.06-0.29,0.08-0.49
		c0.03-0.2,0.05-0.38,0.07-0.54H68.16z"/>
	<path class="st5" d="M73.17,22.13c-0.01,0.04-0.01,0.08-0.02,0.12c0,0.04,0,0.07,0,0.11c0,0.22,0.04,0.42,0.12,0.6
		c0.08,0.18,0.18,0.34,0.32,0.47s0.3,0.24,0.48,0.31c0.18,0.07,0.38,0.11,0.59,0.11c0.37,0,0.69-0.08,0.96-0.24
		c0.27-0.16,0.49-0.36,0.66-0.58l0.42,0.4c-0.27,0.33-0.59,0.57-0.95,0.73c-0.36,0.16-0.74,0.25-1.15,0.25
		c-0.3,0-0.58-0.05-0.84-0.14c-0.26-0.09-0.49-0.23-0.67-0.4c-0.19-0.17-0.34-0.39-0.45-0.65c-0.11-0.26-0.17-0.55-0.17-0.88
		c0-0.38,0.07-0.74,0.21-1.09s0.33-0.65,0.58-0.91c0.24-0.26,0.53-0.47,0.86-0.62c0.33-0.16,0.69-0.23,1.07-0.23
		c0.64,0,1.12,0.17,1.46,0.51s0.5,0.78,0.5,1.32c0,0.08-0.01,0.2-0.02,0.36c-0.01,0.16-0.04,0.31-0.07,0.45H73.17z M76.44,21.63
		c0.01-0.05,0.01-0.11,0.02-0.17c0-0.06,0-0.12,0-0.17c0-0.36-0.11-0.66-0.33-0.88c-0.22-0.23-0.54-0.35-0.97-0.35
		c-0.25,0-0.47,0.04-0.68,0.12c-0.21,0.08-0.4,0.2-0.56,0.35c-0.16,0.15-0.3,0.31-0.42,0.5c-0.11,0.19-0.19,0.39-0.24,0.6H76.44z"/>
	<path class="st5" d="M78.87,20.15c0.03-0.2,0.05-0.38,0.06-0.54h0.64c-0.01,0.13-0.03,0.27-0.05,0.42
		c-0.02,0.15-0.04,0.28-0.06,0.38h0.02c0.17-0.27,0.39-0.5,0.66-0.67s0.57-0.25,0.9-0.25c0.09,0,0.16,0,0.23,0.01
		c0.07,0.01,0.14,0.02,0.21,0.04l-0.16,0.64c-0.03-0.01-0.1-0.03-0.19-0.04c-0.09-0.01-0.18-0.02-0.27-0.02
		c-0.18,0-0.36,0.03-0.53,0.1c-0.17,0.07-0.33,0.17-0.47,0.32c-0.14,0.14-0.27,0.33-0.38,0.55c-0.11,0.22-0.19,0.49-0.24,0.8
		l-0.42,2.4h-0.67l0.64-3.65C78.81,20.51,78.84,20.35,78.87,20.15z"/>
</g>
</svg>
