<?xml version="1.0" encoding="utf-8"?>
<!-- Generator: Adobe Illustrator 25.1.0, SVG Export Plug-In . SVG Version: 6.00 Build 0)  -->
<svg version="1.1" id="Layer_1" xmlns="http://www.w3.org/2000/svg" xmlns:xlink="http://www.w3.org/1999/xlink" x="0px" y="0px"
	 viewBox="0 0 500 500" style="enable-background:new 0 0 500 500;" xml:space="preserve">
<style type="text/css">
	.st0{fill:#0A1F2C;}
</style>
<path class="st0" d="M250.11,3.35C114.13,3.41,3.95,113.69,4.01,249.66c0.06,135.97,110.34,246.16,246.31,246.1
	c135.93-0.06,246.1-110.27,246.1-246.2C496.23,113.62,386.05,3.48,250.11,3.35z M463.09,233.32h-65.04
	c-1.15-36.83-7.72-73.3-19.48-108.22h45.02C446.49,156.84,460.16,194.3,463.09,233.32z M394.8,92.63h-28.57
	c-5.2-11.8-10.39-22.4-15.37-31.49C366.8,69.71,381.56,80.3,394.8,92.63z M266.34,36.68c11.53,0.86,22.97,2.67,34.2,5.41
	c0.22,0.32,0.43,0.76,0.65,1.08c11.24,15.53,20.99,32.09,29.11,49.46h-63.96V36.68z M266.34,125.1h77.7
	c12.89,34.7,20.16,71.23,21.54,108.22h-99.24V125.1z M199.03,43.18c0.29-0.33,0.54-0.7,0.76-1.08c11.19-2.75,22.6-4.56,34.09-5.41
	v55.95h-63.96C178.09,75.29,187.83,58.74,199.03,43.18z M233.88,125.1v108.22h-99.13c1.35-36.98,8.58-73.52,21.43-108.22
	L233.88,125.1z M149.35,61.14c-4.87,9.09-10.06,19.7-15.26,31.49h-28.57C118.72,80.3,133.45,69.72,149.35,61.14L149.35,61.14z
	 M77.39,124.23c1.6,0.57,3.28,0.86,4.98,0.87h39.28c-11.73,34.93-18.25,71.39-19.37,108.22H37.24
	C40.16,193.92,54.07,156.13,77.39,124.23z M77.39,374.88c-23.32-31.89-37.23-69.69-40.15-109.09h65.04
	c1.12,36.83,7.65,73.29,19.37,108.22H82.36C80.67,374.02,78.99,374.31,77.39,374.88z M105.52,406.48h28.57
	c5.19,11.8,10.39,22.4,15.26,31.49C133.45,429.4,118.72,418.81,105.52,406.48z M233.87,462.43c-11.49-0.85-22.9-2.66-34.09-5.41
	c-0.22-0.39-0.47-0.75-0.76-1.08c-11.2-15.56-20.94-32.12-29.11-49.46h63.96L233.87,462.43z M233.87,374.01h-77.7
	c-12.85-34.71-20.08-71.24-21.43-108.22h99.13V374.01z M301.19,455.93c-0.22,0.32-0.43,0.76-0.65,1.08
	c-11.23,2.74-22.67,4.55-34.2,5.41v-55.95h63.96C322.18,423.84,312.43,440.4,301.19,455.93L301.19,455.93z M266.34,374.01V265.79
	h99.24c-1.38,36.99-8.65,73.52-21.54,108.22H266.34z M350.86,437.97c4.98-9.09,10.17-19.7,15.37-31.49h28.57
	C381.56,418.81,366.8,429.4,350.86,437.97L350.86,437.97z M423.59,374.01h-45.02c11.76-34.92,18.33-71.39,19.48-108.22h65.04
	C460.16,304.82,446.49,342.27,423.59,374.01z"/>
</svg>
